<mxfile host="Electron" modified="2024-02-05T12:26:47.445Z" agent="Mozilla/5.0 (Windows NT 10.0; Win64; x64) AppleWebKit/537.36 (KHTML, like Gecko) draw.io/23.0.2 Chrome/120.0.6099.109 Electron/28.1.0 Safari/537.36" etag="jKdgif0gxyPBrLui4TyU" version="23.0.2" type="device">
  <diagram name="Страница — 1" id="T4WKDBiZr5aVBfc4GMqA">
    <mxGraphModel dx="851" dy="887" grid="1" gridSize="10" guides="1" tooltips="1" connect="1" arrows="1" fold="1" page="1" pageScale="1" pageWidth="827" pageHeight="1169" math="0" shadow="0">
      <root>
        <mxCell id="0" />
        <mxCell id="1" parent="0" />
        <mxCell id="nThiTxbk68jXo-gYyB-E-23" value="" style="edgeStyle=orthogonalEdgeStyle;rounded=0;orthogonalLoop=1;jettySize=auto;html=1;" edge="1" parent="1" source="nThiTxbk68jXo-gYyB-E-1" target="nThiTxbk68jXo-gYyB-E-22">
          <mxGeometry relative="1" as="geometry" />
        </mxCell>
        <mxCell id="nThiTxbk68jXo-gYyB-E-1" value="Start" style="rounded=0;whiteSpace=wrap;html=1;" vertex="1" parent="1">
          <mxGeometry x="340" y="60" width="120" height="60" as="geometry" />
        </mxCell>
        <mxCell id="nThiTxbk68jXo-gYyB-E-10" style="edgeStyle=orthogonalEdgeStyle;rounded=0;orthogonalLoop=1;jettySize=auto;html=1;exitX=0.5;exitY=1;exitDx=0;exitDy=0;entryX=0.5;entryY=0;entryDx=0;entryDy=0;" edge="1" parent="1" source="nThiTxbk68jXo-gYyB-E-2" target="nThiTxbk68jXo-gYyB-E-7">
          <mxGeometry relative="1" as="geometry" />
        </mxCell>
        <mxCell id="nThiTxbk68jXo-gYyB-E-11" style="edgeStyle=orthogonalEdgeStyle;rounded=0;orthogonalLoop=1;jettySize=auto;html=1;exitX=0.5;exitY=1;exitDx=0;exitDy=0;entryX=0.5;entryY=0;entryDx=0;entryDy=0;" edge="1" parent="1" source="nThiTxbk68jXo-gYyB-E-2" target="nThiTxbk68jXo-gYyB-E-8">
          <mxGeometry relative="1" as="geometry" />
        </mxCell>
        <mxCell id="nThiTxbk68jXo-gYyB-E-12" style="edgeStyle=orthogonalEdgeStyle;rounded=0;orthogonalLoop=1;jettySize=auto;html=1;exitX=0.5;exitY=1;exitDx=0;exitDy=0;entryX=0.5;entryY=0;entryDx=0;entryDy=0;" edge="1" parent="1" source="nThiTxbk68jXo-gYyB-E-2" target="nThiTxbk68jXo-gYyB-E-9">
          <mxGeometry relative="1" as="geometry" />
        </mxCell>
        <mxCell id="nThiTxbk68jXo-gYyB-E-13" style="edgeStyle=orthogonalEdgeStyle;rounded=0;orthogonalLoop=1;jettySize=auto;html=1;exitX=0.5;exitY=1;exitDx=0;exitDy=0;entryX=0.5;entryY=0;entryDx=0;entryDy=0;" edge="1" parent="1" source="nThiTxbk68jXo-gYyB-E-2" target="nThiTxbk68jXo-gYyB-E-4">
          <mxGeometry relative="1" as="geometry" />
        </mxCell>
        <mxCell id="nThiTxbk68jXo-gYyB-E-2" value="create_main_layout" style="whiteSpace=wrap;html=1;rounded=0;" vertex="1" parent="1">
          <mxGeometry x="340" y="300" width="120" height="60" as="geometry" />
        </mxCell>
        <mxCell id="nThiTxbk68jXo-gYyB-E-15" value="" style="edgeStyle=orthogonalEdgeStyle;rounded=0;orthogonalLoop=1;jettySize=auto;html=1;" edge="1" parent="1" source="nThiTxbk68jXo-gYyB-E-4" target="nThiTxbk68jXo-gYyB-E-14">
          <mxGeometry relative="1" as="geometry" />
        </mxCell>
        <mxCell id="nThiTxbk68jXo-gYyB-E-4" value="create_scan_layout" style="whiteSpace=wrap;html=1;rounded=0;" vertex="1" parent="1">
          <mxGeometry y="440" width="120" height="60" as="geometry" />
        </mxCell>
        <mxCell id="nThiTxbk68jXo-gYyB-E-19" value="" style="edgeStyle=orthogonalEdgeStyle;rounded=0;orthogonalLoop=1;jettySize=auto;html=1;" edge="1" parent="1" source="nThiTxbk68jXo-gYyB-E-7" target="nThiTxbk68jXo-gYyB-E-18">
          <mxGeometry relative="1" as="geometry" />
        </mxCell>
        <mxCell id="nThiTxbk68jXo-gYyB-E-7" value="create_update_layout" style="whiteSpace=wrap;html=1;rounded=0;" vertex="1" parent="1">
          <mxGeometry x="240" y="440" width="120" height="60" as="geometry" />
        </mxCell>
        <mxCell id="nThiTxbk68jXo-gYyB-E-29" style="edgeStyle=orthogonalEdgeStyle;rounded=0;orthogonalLoop=1;jettySize=auto;html=1;exitX=0.5;exitY=1;exitDx=0;exitDy=0;entryX=0.5;entryY=0;entryDx=0;entryDy=0;" edge="1" parent="1" source="nThiTxbk68jXo-gYyB-E-8" target="nThiTxbk68jXo-gYyB-E-27">
          <mxGeometry relative="1" as="geometry" />
        </mxCell>
        <mxCell id="nThiTxbk68jXo-gYyB-E-30" style="edgeStyle=orthogonalEdgeStyle;rounded=0;orthogonalLoop=1;jettySize=auto;html=1;exitX=0.5;exitY=1;exitDx=0;exitDy=0;entryX=0.5;entryY=0;entryDx=0;entryDy=0;" edge="1" parent="1" source="nThiTxbk68jXo-gYyB-E-8" target="nThiTxbk68jXo-gYyB-E-28">
          <mxGeometry relative="1" as="geometry" />
        </mxCell>
        <mxCell id="nThiTxbk68jXo-gYyB-E-8" value="create_settings_layout" style="whiteSpace=wrap;html=1;rounded=0;" vertex="1" parent="1">
          <mxGeometry x="480" y="440" width="120" height="60" as="geometry" />
        </mxCell>
        <mxCell id="nThiTxbk68jXo-gYyB-E-37" style="edgeStyle=orthogonalEdgeStyle;rounded=0;orthogonalLoop=1;jettySize=auto;html=1;exitX=0.5;exitY=1;exitDx=0;exitDy=0;entryX=0.5;entryY=0;entryDx=0;entryDy=0;" edge="1" parent="1" source="nThiTxbk68jXo-gYyB-E-9" target="nThiTxbk68jXo-gYyB-E-34">
          <mxGeometry relative="1" as="geometry" />
        </mxCell>
        <mxCell id="nThiTxbk68jXo-gYyB-E-38" style="edgeStyle=orthogonalEdgeStyle;rounded=0;orthogonalLoop=1;jettySize=auto;html=1;exitX=0.5;exitY=1;exitDx=0;exitDy=0;entryX=0.5;entryY=0;entryDx=0;entryDy=0;" edge="1" parent="1" source="nThiTxbk68jXo-gYyB-E-9" target="nThiTxbk68jXo-gYyB-E-35">
          <mxGeometry relative="1" as="geometry" />
        </mxCell>
        <mxCell id="nThiTxbk68jXo-gYyB-E-39" style="edgeStyle=orthogonalEdgeStyle;rounded=0;orthogonalLoop=1;jettySize=auto;html=1;exitX=0.5;exitY=1;exitDx=0;exitDy=0;entryX=0.5;entryY=0;entryDx=0;entryDy=0;" edge="1" parent="1" source="nThiTxbk68jXo-gYyB-E-9" target="nThiTxbk68jXo-gYyB-E-36">
          <mxGeometry relative="1" as="geometry" />
        </mxCell>
        <mxCell id="nThiTxbk68jXo-gYyB-E-9" value="create_dev_layout" style="whiteSpace=wrap;html=1;rounded=0;" vertex="1" parent="1">
          <mxGeometry x="880" y="440" width="120" height="60" as="geometry" />
        </mxCell>
        <mxCell id="nThiTxbk68jXo-gYyB-E-17" value="" style="edgeStyle=orthogonalEdgeStyle;rounded=0;orthogonalLoop=1;jettySize=auto;html=1;" edge="1" parent="1" source="nThiTxbk68jXo-gYyB-E-14" target="nThiTxbk68jXo-gYyB-E-16">
          <mxGeometry relative="1" as="geometry" />
        </mxCell>
        <mxCell id="nThiTxbk68jXo-gYyB-E-14" value="start_service" style="whiteSpace=wrap;html=1;rounded=0;" vertex="1" parent="1">
          <mxGeometry y="580" width="120" height="60" as="geometry" />
        </mxCell>
        <mxCell id="nThiTxbk68jXo-gYyB-E-16" value="stop_service" style="whiteSpace=wrap;html=1;rounded=0;" vertex="1" parent="1">
          <mxGeometry y="720" width="120" height="60" as="geometry" />
        </mxCell>
        <mxCell id="nThiTxbk68jXo-gYyB-E-18" value="database_update" style="whiteSpace=wrap;html=1;rounded=0;" vertex="1" parent="1">
          <mxGeometry x="240" y="580" width="120" height="60" as="geometry" />
        </mxCell>
        <mxCell id="nThiTxbk68jXo-gYyB-E-24" value="" style="edgeStyle=orthogonalEdgeStyle;rounded=0;orthogonalLoop=1;jettySize=auto;html=1;" edge="1" parent="1" source="nThiTxbk68jXo-gYyB-E-22" target="nThiTxbk68jXo-gYyB-E-2">
          <mxGeometry relative="1" as="geometry" />
        </mxCell>
        <mxCell id="nThiTxbk68jXo-gYyB-E-22" value="load_config" style="rounded=0;whiteSpace=wrap;html=1;" vertex="1" parent="1">
          <mxGeometry x="340" y="180" width="120" height="60" as="geometry" />
        </mxCell>
        <mxCell id="nThiTxbk68jXo-gYyB-E-32" style="edgeStyle=orthogonalEdgeStyle;rounded=0;orthogonalLoop=1;jettySize=auto;html=1;exitX=0.5;exitY=1;exitDx=0;exitDy=0;entryX=0.5;entryY=0;entryDx=0;entryDy=0;" edge="1" parent="1" source="nThiTxbk68jXo-gYyB-E-27" target="nThiTxbk68jXo-gYyB-E-31">
          <mxGeometry relative="1" as="geometry" />
        </mxCell>
        <mxCell id="nThiTxbk68jXo-gYyB-E-27" value="set_autostartup" style="whiteSpace=wrap;html=1;rounded=0;" vertex="1" parent="1">
          <mxGeometry x="400" y="580" width="120" height="60" as="geometry" />
        </mxCell>
        <mxCell id="nThiTxbk68jXo-gYyB-E-33" style="edgeStyle=orthogonalEdgeStyle;rounded=0;orthogonalLoop=1;jettySize=auto;html=1;exitX=0.5;exitY=1;exitDx=0;exitDy=0;entryX=0.5;entryY=0;entryDx=0;entryDy=0;" edge="1" parent="1" source="nThiTxbk68jXo-gYyB-E-28" target="nThiTxbk68jXo-gYyB-E-31">
          <mxGeometry relative="1" as="geometry" />
        </mxCell>
        <mxCell id="nThiTxbk68jXo-gYyB-E-28" value="theme" style="whiteSpace=wrap;html=1;rounded=0;" vertex="1" parent="1">
          <mxGeometry x="560" y="580" width="120" height="60" as="geometry" />
        </mxCell>
        <mxCell id="nThiTxbk68jXo-gYyB-E-31" value="save_config" style="rounded=0;whiteSpace=wrap;html=1;" vertex="1" parent="1">
          <mxGeometry x="480" y="720" width="120" height="60" as="geometry" />
        </mxCell>
        <mxCell id="nThiTxbk68jXo-gYyB-E-34" value="sg.theme_previewer" style="rounded=0;whiteSpace=wrap;html=1;" vertex="1" parent="1">
          <mxGeometry x="720" y="580" width="120" height="60" as="geometry" />
        </mxCell>
        <mxCell id="nThiTxbk68jXo-gYyB-E-35" value="install_service" style="rounded=0;whiteSpace=wrap;html=1;" vertex="1" parent="1">
          <mxGeometry x="880" y="580" width="120" height="60" as="geometry" />
        </mxCell>
        <mxCell id="nThiTxbk68jXo-gYyB-E-36" value="uninstall_service" style="rounded=0;whiteSpace=wrap;html=1;" vertex="1" parent="1">
          <mxGeometry x="1040" y="580" width="120" height="60" as="geometry" />
        </mxCell>
      </root>
    </mxGraphModel>
  </diagram>
</mxfile>
